{
   "accessors" : [
      {
         "bufferView" : 0,
         "componentType" : 5126,
         "count" : 7165,
         "type" : "VEC2"
      },
      {
         "bufferView" : 1,
         "componentType" : 5126,
         "count" : 7165,
         "type" : "VEC3"
      },
      {
         "bufferView" : 2,
         "componentType" : 5126,
         "count" : 7165,
         "type" : "VEC4"
      },
      {
         "bufferView" : 3,
         "componentType" : 5126,
         "count" : 7165,
         "max" : [ 0.131662, 0.137638986, 0.10078799 ],
         "min" : [ -0.131333, -0.028128, -0.137763992 ],
         "type" : "VEC3"
      },
      {
         "bufferView" : 4,
         "componentType" : 5123,
         "count" : 24408,
         "type" : "SCALAR"
      },
      {
         "bufferView" : 5,
         "componentType" : 5126,
         "count" : 12552,
         "type" : "VEC2"
      },
      {
         "bufferView" : 6,
         "componentType" : 5126,
         "count" : 12552,
         "type" : "VEC3"
      },
      {
         "bufferView" : 7,
         "componentType" : 5126,
         "count" : 12552,
         "type" : "VEC4"
      },
      {
         "bufferView" : 8,
         "componentType" : 5126,
         "count" : 12552,
         "max" : [ 0.117221504, 0.196387976, 0.132422984 ],
         "min" : [ -0.11722149, -0.196387976, -0.132422984 ],
         "type" : "VEC3"
      },
      {
         "bufferView" : 9,
         "componentType" : 5123,
         "count" : 65688,
         "type" : "SCALAR"
      },
      {
         "bufferView" : 10,
         "componentType" : 5126,
         "count" : 436,
         "type" : "VEC2"
      },
      {
         "bufferView" : 11,
         "componentType" : 5126,
         "count" : 436,
         "type" : "VEC3"
      },
      {
         "bufferView" : 12,
         "componentType" : 5126,
         "count" : 436,
         "type" : "VEC4"
      },
      {
         "bufferView" : 13,
         "componentType" : 5126,
         "count" : 436,
         "max" : [ 0.09527509000000001, 0.114654, -0.08429489 ],
         "min" : [ -0.0952748954, 0.0551489964, -0.14295499 ],
         "type" : "VEC3"
      },
      {
         "bufferView" : 14,
         "componentType" : 5123,
         "count" : 2208,
         "type" : "SCALAR"
      },
      {
         "bufferView" : 15,
         "componentType" : 5126,
         "count" : 16077,
         "type" : "VEC2"
      },
      {
         "bufferView" : 16,
         "componentType" : 5126,
         "count" : 16077,
         "type" : "VEC3"
      },
      {
         "bufferView" : 17,
         "componentType" : 5126,
         "count" : 16077,
         "type" : "VEC4"
      },
      {
         "bufferView" : 18,
         "componentType" : 5126,
         "count" : 16077,
         "max" : [ 0.1572095, 0.2716865, 0.162181988 ],
         "min" : [ -0.1572095, -0.2716865, -0.162181988 ],
         "type" : "VEC3"
      },
      {
         "bufferView" : 19,
         "componentType" : 5123,
         "count" : 60288,
         "type" : "SCALAR"
      },
      {
         "bufferView" : 20,
         "componentType" : 5126,
         "count" : 24136,
         "type" : "VEC2"
      },
      {
         "bufferView" : 21,
         "componentType" : 5126,
         "count" : 24136,
         "type" : "VEC3"
      },
      {
         "bufferView" : 22,
         "componentType" : 5126,
         "count" : 24136,
         "type" : "VEC4"
      },
      {
         "bufferView" : 23,
         "componentType" : 5126,
         "count" : 24136,
         "max" : [ 0.150407478, 0.328366965, 0.173672989 ],
         "min" : [ -0.1504075, -0.328366965, -0.173673 ],
         "type" : "VEC3"
      },
      {
         "bufferView" : 24,
         "componentType" : 5123,
         "count" : 131574,
         "type" : "SCALAR"
      }
   ],
   "asset" : {
      "extras" : {
         "GOOGLE_processor_version" : 294144208
      },
      "generator" : "glTF Tools for Unity",
      "version" : "2.0"
   },
   "bufferViews" : [
      {
         "buffer" : 0,
         "byteLength" : 57320
      },
      {
         "buffer" : 0,
         "byteLength" : 85980,
         "byteOffset" : 57320
      },
      {
         "buffer" : 0,
         "byteLength" : 114640,
         "byteOffset" : 143300
      },
      {
         "buffer" : 0,
         "byteLength" : 85980,
         "byteOffset" : 257940
      },
      {
         "buffer" : 0,
         "byteLength" : 48816,
         "byteOffset" : 343920
      },
      {
         "buffer" : 0,
         "byteLength" : 100416,
         "byteOffset" : 392736
      },
      {
         "buffer" : 0,
         "byteLength" : 150624,
         "byteOffset" : 493152
      },
      {
         "buffer" : 0,
         "byteLength" : 200832,
         "byteOffset" : 643776
      },
      {
         "buffer" : 0,
         "byteLength" : 150624,
         "byteOffset" : 844608
      },
      {
         "buffer" : 0,
         "byteLength" : 131376,
         "byteOffset" : 995232
      },
      {
         "buffer" : 0,
         "byteLength" : 3488,
         "byteOffset" : 1126608
      },
      {
         "buffer" : 0,
         "byteLength" : 5232,
         "byteOffset" : 1130096
      },
      {
         "buffer" : 0,
         "byteLength" : 6976,
         "byteOffset" : 1135328
      },
      {
         "buffer" : 0,
         "byteLength" : 5232,
         "byteOffset" : 1142304
      },
      {
         "buffer" : 0,
         "byteLength" : 4416,
         "byteOffset" : 1147536
      },
      {
         "buffer" : 0,
         "byteLength" : 128616,
         "byteOffset" : 1151952
      },
      {
         "buffer" : 0,
         "byteLength" : 192924,
         "byteOffset" : 1280568
      },
      {
         "buffer" : 0,
         "byteLength" : 257232,
         "byteOffset" : 1473492
      },
      {
         "buffer" : 0,
         "byteLength" : 192924,
         "byteOffset" : 1730724
      },
      {
         "buffer" : 0,
         "byteLength" : 120576,
         "byteOffset" : 1923648
      },
      {
         "buffer" : 0,
         "byteLength" : 193088,
         "byteOffset" : 2044224
      },
      {
         "buffer" : 0,
         "byteLength" : 289632,
         "byteOffset" : 2237312
      },
      {
         "buffer" : 0,
         "byteLength" : 386176,
         "byteOffset" : 2526944
      },
      {
         "buffer" : 0,
         "byteLength" : 289632,
         "byteOffset" : 2913120
      },
      {
         "buffer" : 0,
         "byteLength" : 263148,
         "byteOffset" : 3202752
      }
   ],
   "buffers" : [
      {
         "byteLength" : 3465900,
         "uri" : "FlightHelmet.bin"
      }
   ],
   "cameras" : [
      {
         "perspective" : {
            "yfov" : 0.7853981633974483,
            "znear" : 0.1000000014901161
         },
         "type" : "perspective"
      }
   ],
   "extensions" : {
      "KHR_lights_punctual" : {
         "lights" : [
            {
               "color" : [ 1, 0.9333333333333333, 0.8666666666666667 ],
               "intensity" : 0.25,
               "name" : "headLight",
               "type" : "directional"
            },
            {
               "color" : [ 1, 0.9333333333333333, 0.8666666666666667 ],
               "intensity" : 0.324999988079071,
               "name" : "keyLight",
               "type" : "directional"
            }
         ]
      }
   },
   "extensionsUsed" : [ "GOOGLE_backgrounds", "GOOGLE_camera_settings", "KHR_lights_punctual" ],
   "extras" : {
      "GOOGLE_initial_camera_motion" : {
         "motionPath" : "FULL_ROTATION"
      },
      "GOOGLE_lighting_rig" : {
         "disableShadows" : false
      }
   },
   "images" : [
      {
         "uri" : "FlightHelmet_baseColor.png"
      },
      {
         "uri" : "FlightHelmet_occlusionRoughnessMetallic.png"
      },
      {
         "uri" : "FlightHelmet_normal.png"
      },
      {
         "uri" : "FlightHelmet_baseColor1.png"
      },
      {
         "uri" : "FlightHelmet_occlusionRoughnessMetallic1.png"
      },
      {
         "uri" : "FlightHelmet_normal1.png"
      },
      {
         "uri" : "FlightHelmet_baseColor2.png"
      },
      {
         "uri" : "FlightHelmet_occlusionRoughnessMetallic2.png"
      },
      {
         "uri" : "FlightHelmet_normal2.png"
      },
      {
         "uri" : "FlightHelmet_baseColor3.png"
      },
      {
         "uri" : "FlightHelmet_occlusionRoughnessMetallic3.png"
      },
      {
         "uri" : "FlightHelmet_normal3.png"
      },
      {
         "uri" : "FlightHelmet_baseColor4.png"
      },
      {
         "uri" : "FlightHelmet_occlusionRoughnessMetallic4.png"
      },
      {
         "uri" : "FlightHelmet_normal4.png"
      }
   ],
   "materials" : [
      {
         "alphaCutoff" : 0.5,
         "alphaMode" : "OPAQUE",
         "doubleSided" : false,
         "emissiveFactor" : [ 0, 0, 0 ],
         "name" : "GlassPlasticMat",
         "normalTexture" : {
            "index" : 2,
            "scale" : 1
         },
         "occlusionTexture" : {
            "index" : 1,
            "strength" : 1
         },
         "pbrMetallicRoughness" : {
            "baseColorTexture" : {
               "index" : 0
            },
            "metallicFactor" : 1,
            "metallicRoughnessTexture" : {
               "index" : 1
            },
            "roughnessFactor" : 1
         }
      },
      {
         "alphaCutoff" : 0.5,
         "alphaMode" : "OPAQUE",
         "doubleSided" : false,
         "emissiveFactor" : [ 0, 0, 0 ],
         "name" : "LeatherPartsMat",
         "normalTexture" : {
            "index" : 5,
            "scale" : 1
         },
         "occlusionTexture" : {
            "index" : 4,
            "strength" : 1
         },
         "pbrMetallicRoughness" : {
            "baseColorTexture" : {
               "index" : 3
            },
            "metallicFactor" : 1,
            "metallicRoughnessTexture" : {
               "index" : 4
            },
            "roughnessFactor" : 1
         }
      },
      {
         "alphaCutoff" : 0.5,
         "alphaMode" : "BLEND",
         "doubleSided" : false,
         "emissiveFactor" : [ 0, 0, 0 ],
         "name" : "LensesMat",
         "normalTexture" : {
            "index" : 8,
            "scale" : 1
         },
         "occlusionTexture" : {
            "index" : 7,
            "strength" : 1
         },
         "pbrMetallicRoughness" : {
            "baseColorTexture" : {
               "index" : 6
            },
            "metallicFactor" : 1,
            "metallicRoughnessTexture" : {
               "index" : 7
            },
            "roughnessFactor" : 1
         }
      },
      {
         "alphaCutoff" : 0.5,
         "alphaMode" : "OPAQUE",
         "doubleSided" : false,
         "emissiveFactor" : [ 0, 0, 0 ],
         "name" : "MetalPartsMat",
         "normalTexture" : {
            "index" : 11,
            "scale" : 1
         },
         "occlusionTexture" : {
            "index" : 10,
            "strength" : 1
         },
         "pbrMetallicRoughness" : {
            "baseColorTexture" : {
               "index" : 9
            },
            "metallicFactor" : 1,
            "metallicRoughnessTexture" : {
               "index" : 10
            },
            "roughnessFactor" : 1
         }
      },
      {
         "alphaCutoff" : 0.5,
         "alphaMode" : "OPAQUE",
         "doubleSided" : true,
         "emissiveFactor" : [ 0, 0, 0 ],
         "name" : "RubberWoodMat",
         "normalTexture" : {
            "index" : 14,
            "scale" : 1
         },
         "occlusionTexture" : {
            "index" : 13,
            "strength" : 1
         },
         "pbrMetallicRoughness" : {
            "baseColorTexture" : {
               "index" : 12
            },
            "metallicFactor" : 1,
            "metallicRoughnessTexture" : {
               "index" : 13
            },
            "roughnessFactor" : 1
         }
      }
   ],
   "meshes" : [
      {
         "name" : "GlassPlastic_low",
         "primitives" : [
            {
               "attributes" : {
                  "NORMAL" : 1,
                  "POSITION" : 3,
                  "TANGENT" : 2,
                  "TEXCOORD_0" : 0
               },
               "indices" : 4,
               "material" : 0
            }
         ]
      },
      {
         "name" : "LeatherParts_low",
         "primitives" : [
            {
               "attributes" : {
                  "NORMAL" : 6,
                  "POSITION" : 8,
                  "TANGENT" : 7,
                  "TEXCOORD_0" : 5
               },
               "indices" : 9,
               "material" : 1
            }
         ]
      },
      {
         "name" : "Lenses_low",
         "primitives" : [
            {
               "attributes" : {
                  "NORMAL" : 11,
                  "POSITION" : 13,
                  "TANGENT" : 12,
                  "TEXCOORD_0" : 10
               },
               "indices" : 14,
               "material" : 2
            }
         ]
      },
      {
         "name" : "MetalParts_low",
         "primitives" : [
            {
               "attributes" : {
                  "NORMAL" : 16,
                  "POSITION" : 18,
                  "TANGENT" : 17,
                  "TEXCOORD_0" : 15
               },
               "indices" : 19,
               "material" : 3
            }
         ]
      },
      {
         "name" : "RubberWood_low",
         "primitives" : [
            {
               "attributes" : {
                  "NORMAL" : 21,
                  "POSITION" : 23,
                  "TANGENT" : 22,
                  "TEXCOORD_0" : 20
               },
               "indices" : 24,
               "material" : 4
            }
         ]
      }
   ],
   "nodes" : [
      {
         "mesh" : 0,
         "name" : "GlassPlastic_low"
      },
      {
         "mesh" : 1,
         "name" : "LeatherParts_low",
         "translation" : [ 0.000434499962, 0.032592997, 0.011676996 ]
      },
      {
         "mesh" : 2,
         "name" : "Lenses_low"
      },
      {
         "mesh" : 3,
         "name" : "MetalParts_low",
         "translation" : [ 0.0331545, -0.1488645, -0.0242879968 ]
      },
      {
         "mesh" : 4,
         "name" : "RubberWood_low",
         "translation" : [ -0.00190849893, -0.111985, -0.013313001 ]
      },
      {
         "children" : [ 0, 1, 2, 3, 4 ],
         "name" : "FlightHelmet",
         "rotation" : [ 0, 1, 0, 0 ]
      },
      {
         "children" : [ 7 ]
      },
      {
         "children" : [ 8 ],
         "extras" : {
            "isTransformNode" : 1
         },
         "translation" : [ -0.00388003085716058, -0.1197935818403532, 0.0139983237553393 ]
      },
      {
         "children" : [ 5 ],
         "translation" : [ 0.00388003085716058, 0.1197935818403532, -0.0139983237553393 ]
      },
      {
         "camera" : 0,
         "children" : [ 10 ],
         "rotation" : [
            -0.2222109694422381,
            -0.2518772342127734,
            -0.05954125154647177,
            0.940018607958983
         ],
         "translation" : [ -0.4111614241885101, 0.2881695525987772, 0.7194405563617071 ]
      },
      {
         "extensions" : {
            "KHR_lights_punctual" : {
               "light" : 0
            }
         },
         "extras" : {
            "isHeadLight" : 1
         },
         "name" : "headLightNode",
         "translation" : [ -0.5207215844103954, 0.2603607922051977, 0.2603607922051977 ]
      },
      {
         "extensions" : {
            "KHR_lights_punctual" : {
               "light" : 1
            }
         },
         "extras" : {
            "isKeyLight" : 1
         },
         "name" : "keyLightNode",
         "rotation" : [ -0.7505326882858236, -0.3752663441429118, 0, 0.5439447166468927 ],
         "scale" : [ 0, 0, 0.5259288002544994 ],
         "translation" : [ -0.5216130132915938, 1.022015086309249, -0.5186972048566851 ]
      }
   ],
   "scene" : 0,
   "scenes" : [
      {
         "extensions" : {
            "GOOGLE_backgrounds" : {
               "color" : [ 0.9333333333333333, 0.9333333333333333, 0.9333333333333333 ]
            },
            "GOOGLE_camera_settings" : {
               "mode" : "movableOrbit",
               "pivot" : [ -0.003874147590665789, -0.11973896055482, 0.01399832375533894 ]
            }
         },
         "extras" : {
            "GOOGLE_camera_index" : {
               "cameraIndex" : 0,
               "nodeIndex" : 9
            },
            "GOOGLE_geometry_data" : {
               "stats" : {
                  "centroid" : [ 0.004315786962905609, -0.02984251419975006, 0.007231595397814299 ],
                  "radius" : 0.5207215844103954,
                  "stdev" : 0.1886892374340138
               },
               "visualCenterPoint" : [ -0.00388003085716058, -0.1197935818403532, 0.0139983237553393 ]
            },
            "GOOGLE_hemi_light" : {
               "groundColor" : [ 0.9333333333333333, 0.9333333333333333, 0.9333333333333333 ]
            }
         },
         "nodes" : [ 6, 9, 11 ]
      }
   ],
   "textures" : [
      {
         "source" : 0
      },
      {
         "source" : 1
      },
      {
         "source" : 2
      },
      {
         "source" : 3
      },
      {
         "source" : 4
      },
      {
         "source" : 5
      },
      {
         "source" : 6
      },
      {
         "source" : 7
      },
      {
         "source" : 8
      },
      {
         "source" : 9
      },
      {
         "source" : 10
      },
      {
         "source" : 11
      },
      {
         "source" : 12
      },
      {
         "source" : 13
      },
      {
         "source" : 14
      }
   ]
}
